<?xml version="1.0" standalone="no"?>
<!DOCTYPE svg PUBLIC "-//W3C//DTD SVG 1.1//EN"
"http://www.w3.org/Graphics/SVG/1.1/DTD/svg11.dtd">

<svg width="553" height="373" view_box="0 0 553 373"
xmlns="http://www.w3.org/2000/svg"
xmlns:link="http://www.w3.org/1999/xlink">\n\n<desc>Généré par Mocodo 2.3.7 le Mon, 11 Mar 2019 08:22:23</desc>

<rect id="frame" x="0" y="0" width="553" height="373" fill="#f7f7f7" stroke="none" stroke-width="0"/>

<!-- Association Ecrit -->
<line x1="44" y1="305" x2="44" y2="161" stroke="#4393c3" stroke-width="2"/>
<text x="49.0" y="238" fill="#b2182b" font-family="Verdana" font-size="12">1,N</text>
<line x1="176" y1="161" x2="44" y2="161" stroke="#4393c3" stroke-width="2"/>
<text x="115" y="178.0" fill="#b2182b" font-family="Verdana" font-size="12">1,N</text>
<g id="association-Ecrit">
	<path d="M 65 127 a 14 14 90 0 1 14 14 V 152 h -70 V 141 a 14 14 90 0 1 14 -14" fill="#92c5de" stroke="#92c5de" stroke-width="0"/>
	<path d="M 79 152.0 v 29 a 14 14 90 0 1 -14 14 H 23 a 14 14 90 0 1 -14 -14 V 152.0 H 70" fill="#d1e5f0" stroke="#d1e5f0" stroke-width="0"/>
	<rect x="9" y="127" width="70" height="68" fill="none" rx="14" stroke="#4393c3" stroke-width="2"/>
	<line x1="9" y1="152" x2="79" y2="152" stroke="#4393c3" stroke-width="1"/>
	<text x="30" y="144.7" fill="#000000" font-family="Verdana" font-size="12">Ecrit</text>
	<text x="16" y="169.8" fill="#000000" font-family="Verdana" font-size="12">id livre</text>
	<text x="16" y="186.8" fill="#000000" font-family="Verdana" font-size="12">id auteur</text>
</g>

<!-- Association Rayon -->
<line x1="176" y1="161" x2="176" y2="43" stroke="#4393c3" stroke-width="2"/>
<text x="181.0" y="85" fill="#b2182b" font-family="Verdana" font-size="12">1,N</text>
<line x1="44" y1="43" x2="176" y2="43" stroke="#4393c3" stroke-width="2"/>
<text x="83" y="60.0" fill="#b2182b" font-family="Verdana" font-size="12">1,1</text>
<g id="association-Rayon">
	<path d="M 228 18 a 14 14 90 0 1 14 14 V 43 h -132 V 32 a 14 14 90 0 1 14 -14" fill="#92c5de" stroke="#92c5de" stroke-width="0"/>
	<path d="M 242 43.0 v 11 a 14 14 90 0 1 -14 14 H 124 a 14 14 90 0 1 -14 -14 V 43.0 H 132" fill="#d1e5f0" stroke="#d1e5f0" stroke-width="0"/>
	<rect x="110" y="18" width="132" height="50" fill="none" rx="14" stroke="#4393c3" stroke-width="2"/>
	<line x1="110" y1="43" x2="242" y2="43" stroke="#4393c3" stroke-width="1"/>
	<text x="156" y="35.7" fill="#000000" font-family="Verdana" font-size="12">Rayon</text>
	<text x="117" y="60.8" fill="#000000" font-family="Verdana" font-size="12">id livre id catégorie</text>
</g>

<!-- Association Prêt -->
<line x1="409" y1="43" x2="409" y2="161" stroke="#4393c3" stroke-width="2"/>
<text x="414.0" y="94" fill="#b2182b" font-family="Verdana" font-size="12">1,N</text>
<line x1="176" y1="161" x2="409" y2="161" stroke="#4393c3" stroke-width="2"/>
<text x="215" y="178.0" fill="#b2182b" font-family="Verdana" font-size="12">1,N</text>
<g id="association-Prêt">
	<path d="M 456 102 a 14 14 90 0 1 14 14 V 127 h -122 V 116 a 14 14 90 0 1 14 -14" fill="#92c5de" stroke="#92c5de" stroke-width="0"/>
	<path d="M 470 127.0 v 79 a 14 14 90 0 1 -14 14 H 362 a 14 14 90 0 1 -14 -14 V 127.0 H 122" fill="#d1e5f0" stroke="#d1e5f0" stroke-width="0"/>
	<rect x="348" y="102" width="122" height="118" fill="none" rx="14" stroke="#4393c3" stroke-width="2"/>
	<line x1="348" y1="127" x2="470" y2="127" stroke="#4393c3" stroke-width="1"/>
	<text x="396" y="119.7" fill="#000000" font-family="Verdana" font-size="12">Prêt</text>
	<text x="355" y="144.7" fill="#000000" font-family="Verdana" font-size="12">id livre</text>
	<text x="355" y="161.8" fill="#000000" font-family="Verdana" font-size="12">id adhérent</text>
	<text x="355" y="178.8" fill="#000000" font-family="Verdana" font-size="12">date debut</text>
	<text x="355" y="195.8" fill="#000000" font-family="Verdana" font-size="12">date de fin</text>
	<text x="355" y="212.8" fill="#000000" font-family="Verdana" font-size="12">courrier de retard</text>
</g>

<!-- Association référence -->
<line x1="176" y1="161" x2="176" y2="305" stroke="#4393c3" stroke-width="2"/>
<text x="181.0" y="246" fill="#b2182b" font-family="Verdana" font-size="12">1,N</text>
<line x1="409" y1="305" x2="176" y2="305" stroke="#4393c3" stroke-width="2"/>
<text x="350" y="322.0" fill="#b2182b" font-family="Verdana" font-size="12">1,N</text>
<g id="association-référence">
	<path d="M 198 254 a 14 14 90 0 1 14 14 V 279 h -72 V 268 a 14 14 90 0 1 14 -14" fill="#92c5de" stroke="#92c5de" stroke-width="0"/>
	<path d="M 212 279.0 v 63 a 14 14 90 0 1 -14 14 H 154 a 14 14 90 0 1 -14 -14 V 279.0 H 72" fill="#d1e5f0" stroke="#d1e5f0" stroke-width="0"/>
	<rect x="140" y="254" width="72" height="102" fill="none" rx="14" stroke="#4393c3" stroke-width="2"/>
	<line x1="140" y1="279" x2="212" y2="279" stroke="#4393c3" stroke-width="1"/>
	<text x="147" y="271.7" fill="#000000" font-family="Verdana" font-size="12">référence</text>
	<text x="147" y="296.7" fill="#000000" font-family="Verdana" font-size="12">id livres</text>
	<text x="147" y="313.8" fill="#000000" font-family="Verdana" font-size="12">id mot1</text>
	<text x="147" y="330.8" fill="#000000" font-family="Verdana" font-size="12">id mot2</text>
	<text x="147" y="347.8" fill="#000000" font-family="Verdana" font-size="12">id mot3</text>
</g>

<!-- Entity catégorie -->
<g id="entity-catégorie">
	<g id="frame-catégorie">
		<rect x="10" y="9" width="68" height="25" fill="#f4a582" stroke="#f4a582" stroke-width="0"/>
		<rect x="10" y="34.0" width="68" height="43" fill="#fddbc7" stroke="#fddbc7" stroke-width="0"/>
		<rect x="10" y="9" width="68" height="68" fill="none" stroke="#d6604d" stroke-width="2"/>
		<line x1="10" y1="34" x2="78" y2="34" stroke="#d6604d" stroke-width="1"/>
	</g>
	<text x="15" y="26.7" fill="#000000" font-family="Verdana" font-size="12">catégorie</text>
	<text x="15" y="51.8" fill="#000000" font-family="Verdana" font-size="12">id</text>
	<line x1="15" y1="54" x2="27" y2="54" stroke="#000000" stroke-width="1"/>
	<text x="15" y="68.8" fill="#000000" font-family="Verdana" font-size="12">type</text>
</g>

<!-- Entity mot_clef -->
<g id="entity-mot_clef">
	<g id="frame-mot_clef">
		<rect x="377" y="271" width="64" height="25" fill="#f4a582" stroke="#f4a582" stroke-width="0"/>
		<rect x="377" y="296.0" width="64" height="43" fill="#fddbc7" stroke="#fddbc7" stroke-width="0"/>
		<rect x="377" y="271" width="64" height="68" fill="none" stroke="#d6604d" stroke-width="2"/>
		<line x1="377" y1="296" x2="441" y2="296" stroke="#d6604d" stroke-width="1"/>
	</g>
	<text x="382" y="288.7" fill="#000000" font-family="Verdana" font-size="12">mot_clef</text>
	<text x="382" y="313.8" fill="#000000" font-family="Verdana" font-size="12">id</text>
	<line x1="382" y1="316" x2="394" y2="316" stroke="#000000" stroke-width="1"/>
	<text x="382" y="330.8" fill="#000000" font-family="Verdana" font-size="12">mot</text>
</g>

<!-- Entity livre -->
<g id="entity-livre">
	<g id="frame-livre">
		<rect x="142" y="93" width="68" height="25" fill="#f4a582" stroke="#f4a582" stroke-width="0"/>
		<rect x="142" y="118.0" width="68" height="111" fill="#fddbc7" stroke="#fddbc7" stroke-width="0"/>
		<rect x="142" y="93" width="68" height="136" fill="none" stroke="#d6604d" stroke-width="2"/>
		<line x1="142" y1="118" x2="210" y2="118" stroke="#d6604d" stroke-width="1"/>
	</g>
	<text x="162" y="110.7" fill="#000000" font-family="Verdana" font-size="12">livre</text>
	<text x="147" y="135.7" fill="#000000" font-family="Verdana" font-size="12">id</text>
	<line x1="147" y1="138" x2="159" y2="138" stroke="#000000" stroke-width="1"/>
	<text x="147" y="152.7" fill="#000000" font-family="Verdana" font-size="12">titre</text>
	<text x="147" y="169.8" fill="#000000" font-family="Verdana" font-size="12">auteur</text>
	<text x="147" y="186.8" fill="#000000" font-family="Verdana" font-size="12">catégorie</text>
	<text x="147" y="203.8" fill="#000000" font-family="Verdana" font-size="12">année</text>
	<text x="147" y="220.8" fill="#000000" font-family="Verdana" font-size="12">pays</text>
</g>

<!-- Entity AUTEUR -->
<g id="entity-AUTEUR">
	<g id="frame-AUTEUR">
		<rect x="14" y="246" width="60" height="25" fill="#f4a582" stroke="#f4a582" stroke-width="0"/>
		<rect x="14" y="271.0" width="60" height="93" fill="#fddbc7" stroke="#fddbc7" stroke-width="0"/>
		<rect x="14" y="246" width="60" height="118" fill="none" stroke="#d6604d" stroke-width="2"/>
		<line x1="14" y1="271" x2="74" y2="271" stroke="#d6604d" stroke-width="1"/>
	</g>
	<text x="19" y="263.7" fill="#000000" font-family="Verdana" font-size="12">AUTEUR</text>
	<text x="19" y="288.7" fill="#000000" font-family="Verdana" font-size="12">id</text>
	<line x1="19" y1="291" x2="31" y2="291" stroke="#000000" stroke-width="1"/>
	<text x="19" y="305.8" fill="#000000" font-family="Verdana" font-size="12">nom</text>
	<text x="19" y="322.8" fill="#000000" font-family="Verdana" font-size="12">prénom</text>
	<text x="19" y="339.8" fill="#000000" font-family="Verdana" font-size="12">age</text>
	<text x="19" y="356.8" fill="#000000" font-family="Verdana" font-size="12">ville</text>
</g>

<!-- Entity adhérent -->
<g id="entity-adhérent">
	<g id="frame-adhérent">
		<rect x="274" y="9" width="270" height="25" fill="#f4a582" stroke="#f4a582" stroke-width="0"/>
		<rect x="274" y="34.0" width="270" height="43" fill="#fddbc7" stroke="#fddbc7" stroke-width="0"/>
		<rect x="274" y="9" width="270" height="68" fill="none" stroke="#d6604d" stroke-width="2"/>
		<line x1="274" y1="34" x2="544" y2="34" stroke="#d6604d" stroke-width="1"/>
	</g>
	<text x="381" y="26.7" fill="#000000" font-family="Verdana" font-size="12">adhérent</text>
	<text x="279" y="51.8" fill="#000000" font-family="Verdana" font-size="12">id. nom. prénom. adresse. tel. email. login</text>
	<line x1="279" y1="54" x2="538" y2="54" stroke="#000000" stroke-width="1"/>
	<text x="279" y="68.8" fill="#000000" font-family="Verdana" font-size="12">password</text>
</g>
</svg>